<svg width="478" height="429" viewBox="0 0 478 429" fill="none" xmlns="http://www.w3.org/2000/svg">
<path d="M289.8 238.65V418.23H41.3199V42.38C41.3169 25.08 55.3399 11.053 72.6399 11.05H258.48C275.779 11.057 289.799 25.081 289.8 42.38V238.65ZM255.34 176.53V59.6H78.3799V176.53H255.34Z" fill="#00EFD1"/>
<path d="M255.34 59.6H78.3799V176.53H255.34V59.6Z" fill="#D4E1F4"/>
<path d="M255.34 186.53H78.38C72.857 186.53 68.38 182.053 68.38 176.53V59.6C68.38 54.077 72.857 49.6 78.38 49.6H255.34C260.863 49.6 265.34 54.077 265.34 59.6V176.53C265.34 182.053 260.863 186.53 255.34 186.53ZM88.38 166.53H245.34V69.6H88.38V166.53Z" fill="#083863"/>
<path d="M467.28 408.64H299.64V248.64H315.9C330.719 248.69 342.691 260.744 342.641 275.563C342.641 275.615 342.641 275.668 342.64 275.72V303.38C342.64 332.651 366.369 356.38 395.64 356.38C424.911 356.38 448.64 332.651 448.64 303.38V145.21C448.675 128.795 442.516 112.972 431.394 100.9L353.185 11.765L338.14 24.955L398.766 94.071C376.863 97.741 362.083 118.472 365.754 140.375C369.003 159.764 385.796 173.961 405.455 173.94C413.749 173.878 421.83 171.311 428.64 166.576V303.376C428.64 321.601 413.865 336.376 395.64 336.376C377.415 336.376 362.64 321.601 362.64 303.376V275.72C362.765 249.844 341.889 228.765 316.013 228.64C315.975 228.64 315.938 228.64 315.9 228.64H299.64V42.38C299.64 19.591 281.264 0.640015 258.48 0.640015H72.64C49.856 0.640015 31.64 19.591 31.64 42.38V408.64H10C4.477 408.64 0 413.117 0 418.64C0 424.163 4.477 428.64 10 428.64H467.28C472.803 428.64 477.28 424.163 477.28 418.64C477.28 413.117 472.803 408.64 467.28 408.64ZM405.42 153.94C394.256 153.943 385.203 144.894 385.2 133.73C385.197 122.566 394.246 113.513 405.41 113.51C416.574 113.507 425.627 122.556 425.63 133.72C425.63 133.723 425.63 133.727 425.63 133.73C425.615 144.885 416.576 153.925 405.42 153.94ZM51.64 42.38C51.64 30.619 60.884 20.64 72.64 20.64H258.48C270.24 20.64 279.64 30.619 279.64 42.38V408.64H51.64V42.38V42.38Z" fill="#083863"/>
<path d="M205.469 335.57C202 340.539 197.148 344.266 190.914 346.75C184.727 349.188 177.508 350.406 169.258 350.406C160.914 350.406 153.508 348.461 147.039 344.57C140.57 340.633 135.555 335.055 131.992 327.836C128.477 320.617 126.672 312.25 126.578 302.734V293.805C126.578 278.383 130.164 266.43 137.336 257.945C144.555 249.461 154.68 245.219 167.711 245.219C178.398 245.219 187 247.961 193.516 253.445C200.031 258.883 204.016 266.617 205.469 276.648H191.969C189.438 263.102 181.375 256.328 167.781 256.328C158.734 256.328 151.867 259.516 147.18 265.891C142.539 272.219 140.195 281.406 140.148 293.453V301.82C140.148 313.305 142.773 322.445 148.023 329.242C153.273 335.992 160.375 339.367 169.328 339.367C174.391 339.367 178.82 338.805 182.617 337.68C186.414 336.555 189.555 334.656 192.039 331.984V308.992H168.344V298.023H205.469V335.57Z" fill="#083863"/>
</svg>
